<svg id="visual" viewBox="0 0 1920 1080" width="1920" height="1080" xmlns="http://www.w3.org/2000/svg" xmlns:xlink="http://www.w3.org/1999/xlink" version="1.1"><rect x="0" y="0" width="1920" height="1080" fill="#010101"></rect><defs><linearGradient id="grad1_0" x1="43.8%" y1="0%" x2="100%" y2="100%"><stop offset="14.444444444444446%" stop-color="#7e22ce" stop-opacity="1"></stop><stop offset="85.55555555555554%" stop-color="#7e22ce" stop-opacity="1"></stop></linearGradient></defs><defs><linearGradient id="grad1_1" x1="43.8%" y1="0%" x2="100%" y2="100%"><stop offset="14.444444444444446%" stop-color="#7e22ce" stop-opacity="1"></stop><stop offset="85.55555555555554%" stop-color="#010101" stop-opacity="1"></stop></linearGradient></defs><defs><linearGradient id="grad2_0" x1="0%" y1="0%" x2="56.3%" y2="100%"><stop offset="14.444444444444446%" stop-color="#7e22ce" stop-opacity="1"></stop><stop offset="85.55555555555554%" stop-color="#7e22ce" stop-opacity="1"></stop></linearGradient></defs><defs><linearGradient id="grad2_1" x1="0%" y1="0%" x2="56.3%" y2="100%"><stop offset="14.444444444444446%" stop-color="#010101" stop-opacity="1"></stop><stop offset="85.55555555555554%" stop-color="#7e22ce" stop-opacity="1"></stop></linearGradient></defs><g transform="translate(1920, 0)"><path d="M0 756C-69.3 754 -138.6 752 -191.3 713.8C-244 675.6 -280.1 601.2 -321 556C-361.9 510.8 -407.6 494.9 -475.2 475.2C-542.8 455.5 -632.2 432.1 -654.7 378C-677.2 323.9 -632.8 239.2 -638.5 171.1C-644.2 103 -700.1 51.5 -756 0L0 0Z" fill="#411a62"></path><path d="M0 378C-34.6 377 -69.3 376 -95.6 356.9C-122 337.8 -140 300.6 -160.5 278C-181 255.4 -203.8 247.4 -237.6 237.6C-271.4 227.7 -316.1 216 -327.4 189C-338.6 162 -316.4 119.6 -319.2 85.5C-322.1 51.5 -350 25.7 -378 0L0 0Z" fill="#7e22ce"></path></g><g transform="translate(0, 1080)"><path d="M0 -756C59.4 -717.5 118.8 -679 175.2 -653.9C231.7 -628.8 285.3 -617.1 348.5 -603.6C411.7 -590.1 484.7 -574.8 534.6 -534.6C584.5 -494.4 611.3 -429.2 638.3 -368.5C665.2 -307.8 692.2 -251.4 711.9 -190.7C731.5 -130.1 743.8 -65 756 0L0 0Z" fill="#411a62"></path><path d="M0 -378C29.7 -358.8 59.4 -339.5 87.6 -327C115.8 -314.4 142.6 -308.6 174.2 -301.8C205.9 -295.1 242.3 -287.4 267.3 -267.3C292.2 -247.2 305.7 -214.6 319.1 -184.3C332.6 -153.9 346.1 -125.7 355.9 -95.4C365.8 -65 371.9 -32.5 378 0L0 0Z" fill="#7e22ce"></path></g></svg>